<?xml version="1.0" encoding="iso-8859-1"?>
<!-- Generator: Adobe Illustrator 18.1.1, SVG Export Plug-In . SVG Version: 6.00 Build 0)  -->
<svg version="1.1" id="Capa_1" xmlns="http://www.w3.org/2000/svg" xmlns:xlink="http://www.w3.org/1999/xlink" x="0px" y="0px"
	 viewBox="0 0 339.75 339.75" style="enable-background:new 0 0 339.75 339.75;" xml:space="preserve">
<g>
	<g>
		<path style="fill:#cccccc;" d="M215.875,169.75l114,114c13,13,13,33,0,46c-6,6-15,10-23,10s-17-4-23-10l-114-114l-114,114
			c-6,6-15,10-23,10s-17-4-23-10c-13-13-13-33,0-46l114-114l-114-114c-13-13-13-33,0-46s33-13,46,0l114,114l114-114
			c13-13,33-13,46,0s13,33,0,46L215.875,169.75z"/>
	</g>
</g>
</svg>
